<svg version="1.0" xmlns="http://www.w3.org/2000/svg"
 width="3520.000000pt" height="1261.000000pt" viewBox="0 0 3520.000000 1261.000000"
 preserveAspectRatio="xMidYMid meet">

<g transform="translate(0.000000,1261.000000) scale(0.100000,-0.100000)"
fill="#000000" stroke="none">
<path d="M7320 12589 c-1101 -73 -2238 -493 -3379 -1247 -1228 -812 -2317
-1872 -3016 -2937 -496 -754 -834 -1581 -915 -2237 -14 -112 -1 -306 26 -398
68 -231 255 -356 454 -306 141 36 215 129 187 238 -15 62 -72 113 -149 135
l-63 19 -6 60 c-4 32 -3 111 2 174 34 435 260 1084 581 1664 482 871 1184
1699 2068 2438 731 611 1586 1158 2240 1433 164 69 598 231 735 275 490 156
1145 252 1625 237 1014 -32 1711 -483 1885 -1222 38 -161 48 -277 42 -484 -9
-274 -43 -467 -132 -736 -333 -1013 -1121 -2008 -2233 -2820 -413 -301 -796
-537 -1187 -730 -641 -317 -1285 -517 -1815 -565 -188 -16 -534 -9 -556 12
-10 11 264 721 409 1058 186 432 469 1025 721 1510 273 525 512 937 844 1455
102 159 196 314 210 344 37 81 40 137 10 203 -54 116 -168 181 -318 182 -121
1 -184 -29 -288 -138 -414 -432 -891 -1307 -1549 -2845 -191 -448 -444 -1098
-584 -1503 -19 -54 -38 -98 -43 -98 -28 0 -157 91 -236 167 -153 145 -218 247
-283 444 -88 263 -74 583 38 884 76 206 207 425 347 579 65 73 207 195 272
235 38 24 39 24 85 7 77 -27 140 -18 190 27 29 27 61 93 61 127 1 123 -142
250 -281 250 -113 0 -240 -56 -400 -176 -254 -192 -436 -406 -567 -669 -282
-565 -314 -1095 -93 -1558 131 -275 355 -499 667 -668 l81 -44 -14 -45 c-225
-737 -340 -1214 -407 -1680 -61 -419 -77 -832 -42 -1090 47 -353 182 -631 401
-827 125 -112 249 -171 375 -180 112 -8 176 13 244 81 65 66 91 125 84 196
-13 131 -175 209 -294 141 -40 -23 -42 -23 -68 -6 -42 28 -132 150 -171 230
-130 275 -124 734 21 1465 82 417 177 771 356 1328 l72 224 36 -6 c154 -26
241 -31 515 -31 322 1 476 14 735 61 167 30 411 90 590 144 159 49 587 207
756 281 1147 497 2342 1399 3125 2359 564 691 891 1349 1005 2019 132 778
-130 1486 -725 1960 -570 453 -1360 661 -2281 600z"/>
<path d="M15055 7241 c-86 -39 -175 -176 -175 -269 0 -54 45 -138 92 -172 127
-92 326 -27 397 130 25 54 26 99 6 167 -34 114 -96 163 -210 163 -46 0 -84 -7
-110 -19z"/>
<path d="M21905 7241 c-86 -39 -175 -176 -175 -269 0 -54 45 -138 92 -172 127
-92 326 -27 397 130 25 54 26 99 6 167 -34 114 -96 163 -210 163 -46 0 -84 -7
-110 -19z"/>
<path d="M27405 7236 c-60 -27 -109 -81 -142 -153 -56 -121 -14 -246 102 -305
109 -56 276 5 346 126 67 118 12 301 -104 345 -50 19 -147 13 -202 -13z"/>
<path d="M33185 6939 c-261 -38 -461 -194 -598 -464 -19 -39 -42 -95 -51 -125
-21 -72 -30 -209 -18 -289 8 -58 7 -69 -21 -140 -16 -42 -45 -136 -63 -209
-31 -126 -42 -150 -203 -467 -518 -1015 -842 -1547 -1029 -1688 -43 -33 -64
-41 -107 -45 -114 -9 -113 -2 169 1093 50 197 106 476 142 715 21 141 22 391
0 489 -32 150 -106 260 -205 304 -64 28 -174 34 -239 13 -190 -64 -471 -389
-765 -886 -47 -80 -93 -154 -102 -165 -16 -19 -16 -19 -11 10 3 17 24 109 46
205 86 365 126 676 117 905 -11 266 -74 411 -211 483 -43 22 -64 27 -131 27
-73 0 -86 -3 -145 -35 -137 -74 -338 -303 -528 -600 -186 -293 -379 -645 -537
-980 -84 -177 -129 -263 -111 -210 3 8 33 107 66 220 71 235 165 533 286 903
46 142 84 266 84 276 0 62 -163 106 -300 81 -75 -13 -125 -41 -144 -78 -8 -15
-37 -125 -64 -244 -49 -210 -52 -220 -112 -325 -241 -419 -572 -831 -814
-1012 -141 -106 -323 -179 -374 -152 -21 11 -42 65 -42 111 0 79 152 715 335
1400 43 162 75 300 73 319 -4 47 -39 70 -126 83 -133 21 -294 -15 -331 -74
-14 -22 -216 -818 -249 -983 -28 -137 -50 -287 -63 -438 -28 -329 60 -524 258
-568 163 -37 444 98 702 336 185 170 381 413 541 670 46 74 85 133 87 131 2
-2 -10 -73 -27 -157 -67 -343 -107 -664 -95 -776 13 -120 71 -185 176 -199
l44 -5 220 447 c329 669 523 1016 731 1309 233 329 391 446 441 327 13 -30 14
-65 10 -187 -8 -220 -65 -509 -212 -1072 -79 -306 -120 -517 -110 -581 14 -93
117 -157 213 -132 116 29 171 79 267 245 399 691 705 1106 876 1189 101 49
139 14 147 -130 10 -189 -49 -505 -208 -1114 -126 -482 -164 -718 -158 -980 4
-134 9 -177 26 -230 29 -86 83 -165 140 -201 42 -27 54 -30 107 -27 35 2 79
13 105 26 149 72 348 309 572 682 113 187 257 457 498 933 l217 428 6 -133
c12 -230 56 -418 132 -555 57 -101 164 -204 261 -250 71 -34 89 -38 176 -41
159 -7 314 42 453 142 76 54 209 191 282 287 l64 86 147 -5 c123 -3 164 -1
250 17 423 88 764 408 1004 944 52 115 54 143 12 153 -37 9 -52 -1 -71 -48 -9
-24 -45 -99 -79 -168 -261 -522 -640 -800 -1089 -800 l-114 0 54 103 c166 314
247 635 248 977 0 296 -70 486 -247 668 -121 125 -255 193 -445 226 -102 17
-144 18 -236 5z m325 -119 c189 -63 342 -194 426 -365 119 -242 110 -637 -22
-1035 -42 -125 -152 -365 -192 -417 l-17 -23 -91 24 c-237 64 -450 193 -642
388 l-73 74 21 95 c44 196 118 435 178 574 56 130 46 182 -45 226 -95 46 -243
35 -309 -23 -20 -17 -56 -61 -82 -97 -43 -60 -47 -63 -50 -40 -5 44 27 171 61
244 82 172 280 331 479 385 97 27 263 22 358 -10z m-344 -1715 c104 -70 286
-158 392 -188 46 -13 83 -28 83 -33 0 -12 -73 -105 -131 -168 -115 -126 -296
-237 -408 -252 -178 -23 -267 140 -265 491 1 121 23 326 39 370 4 10 35 -11
107 -76 56 -49 138 -114 183 -144z"/>
<path d="M10453 6900 c-115 -66 -243 -269 -299 -475 -24 -90 -29 -265 -10
-348 18 -79 66 -180 103 -219 14 -14 52 -41 84 -58 l60 -31 -32 -57 c-106
-188 -285 -450 -425 -623 -341 -423 -771 -662 -958 -532 -54 37 -101 131 -122
243 -21 111 -14 306 16 445 l22 101 66 34 c275 142 524 387 653 642 16 32 43
100 60 151 81 240 0 467 -185 522 -190 57 -417 -41 -639 -274 -178 -188 -290
-396 -366 -681 -79 -297 -82 -604 -7 -885 68 -255 195 -409 395 -477 86 -29
237 -31 326 -4 308 93 667 415 974 874 79 119 185 294 250 414 l51 95 73 6
c183 13 461 160 722 380 55 47 101 79 103 73 1 -7 -15 -82 -37 -167 -59 -225
-194 -815 -234 -1024 -20 -99 -53 -308 -73 -465 -33 -249 -38 -312 -38 -495
-1 -190 1 -218 22 -288 29 -103 54 -149 110 -209 62 -66 113 -92 182 -92 124
-1 264 99 432 308 186 230 386 578 820 1427 l183 357 58 -64 c32 -35 179 -162
325 -283 320 -262 401 -337 503 -459 87 -105 138 -201 169 -318 87 -326 0
-820 -225 -1279 -184 -375 -501 -723 -908 -996 -370 -248 -725 -317 -881 -171
-27 25 -65 94 -66 117 0 6 36 16 81 23 324 51 590 277 774 657 91 187 123 348
91 457 -52 181 -209 258 -367 180 -118 -58 -139 -74 -219 -161 -247 -269 -413
-534 -485 -774 l-28 -93 -258 173 c-339 227 -493 299 -719 339 -129 22 -230
14 -475 -37 -110 -23 -209 -42 -221 -43 -15 -1 -51 38 -142 154 -580 745
-1058 1186 -1634 1509 -611 342 -1351 466 -1913 321 -290 -75 -517 -201 -696
-387 -126 -132 -207 -266 -251 -420 -20 -68 -23 -100 -22 -248 0 -156 2 -178
28 -260 15 -49 51 -139 80 -200 171 -354 564 -681 1060 -880 538 -216 1169
-277 2001 -194 363 36 839 110 1257 195 120 24 224 44 232 44 8 0 74 -78 147
-172 204 -263 322 -401 459 -539 295 -296 557 -474 779 -530 217 -55 380 31
356 187 -9 64 -46 104 -96 104 -42 0 -89 -34 -89 -64 0 -21 -73 -30 -132 -17
-125 28 -256 95 -399 203 -112 84 -349 316 -488 478 -100 116 -321 393 -321
402 0 2 27 1 59 0 46 -3 91 5 193 33 122 35 140 37 223 32 137 -8 282 -62 437
-161 69 -43 242 -138 396 -216 91 -46 123 -68 126 -84 2 -11 9 -52 14 -89 6
-39 26 -100 46 -144 70 -146 205 -242 422 -300 251 -65 600 -14 959 141 249
108 473 263 680 470 443 445 686 934 736 1483 14 157 3 305 -36 460 -31 126
-149 363 -242 488 -123 166 -321 348 -640 590 -143 109 -316 279 -362 357 -55
95 -91 214 -98 326 -21 350 148 699 384 794 49 19 76 23 173 23 106 0 119 -2
170 -28 86 -42 95 -61 95 -192 0 -87 -6 -136 -29 -232 -34 -144 -31 -163 37
-193 48 -22 133 -26 172 -8 102 46 129 374 44 541 -49 96 -145 166 -280 204
-90 25 -404 25 -533 -1 -362 -71 -579 -230 -655 -479 -64 -211 -41 -448 64
-634 l25 -46 -174 -336 c-421 -813 -698 -1257 -915 -1463 -81 -79 -150 -115
-194 -104 -43 10 -52 47 -51 200 1 120 6 167 37 316 64 312 208 894 443 1785
95 362 95 347 6 388 -40 19 -65 22 -172 22 -146 0 -161 -6 -287 -108 -200
-162 -480 -342 -569 -366 -133 -34 -164 -41 -197 -41 -20 0 -38 3 -40 8 -3 4
8 47 24 96 90 280 134 625 95 758 -33 116 -125 150 -233 88z m164 -100 c40
-78 -22 -479 -114 -748 l-19 -53 -25 20 c-15 11 -37 44 -49 73 -20 45 -23 70
-23 163 1 160 48 398 98 495 39 76 106 101 132 50z m-1114 -298 c39 -35 51
-73 50 -162 -2 -145 -60 -320 -155 -466 -90 -138 -296 -321 -446 -398 l-34
-18 7 34 c42 195 153 533 224 683 134 284 266 407 354 327z m-2483 -1867 c516
-72 943 -253 1444 -613 263 -190 647 -568 956 -942 147 -178 243 -300 238
-305 -25 -26 -1038 -173 -1438 -210 -1010 -92 -1719 26 -2250 375 -370 243
-544 508 -544 825 0 162 31 257 127 400 180 265 522 440 950 485 112 12 378 4
517 -15z m5438 -1305 c40 -24 71 -89 72 -145 1 -204 -244 -577 -470 -717 -96
-60 -209 -98 -289 -98 -42 0 -61 4 -61 13 0 26 40 175 66 247 108 301 373 639
551 705 54 19 93 18 131 -5z"/>
<path d="M25845 6720 c-447 -47 -693 -176 -812 -426 -43 -90 -73 -233 -73
-350 0 -222 91 -396 327 -624 59 -58 140 -130 178 -160 39 -31 115 -91 170
-135 113 -89 314 -266 361 -316 38 -42 165 -240 187 -294 19 -46 43 -134 52
-198 l7 -44 -139 -47 c-541 -185 -990 -426 -1345 -723 -47 -40 -88 -73 -90
-73 -3 0 1 30 9 68 7 37 16 144 19 237 9 266 -24 424 -138 647 -135 267 -339
488 -699 758 -308 231 -419 349 -488 513 -44 107 -54 178 -49 330 7 164 31
265 99 405 41 84 64 117 122 176 119 120 244 163 404 138 212 -33 245 -139
153 -496 -18 -73 -19 -81 -4 -103 35 -54 133 -85 199 -63 42 14 81 58 95 108
6 20 16 78 22 128 10 77 9 104 -5 174 -38 194 -138 298 -334 347 -94 23 -371
23 -503 -1 -388 -69 -610 -239 -687 -526 -23 -85 -24 -319 -1 -399 l16 -54
-42 -71 c-231 -387 -551 -779 -771 -944 -87 -66 -226 -136 -299 -153 -130 -29
-145 50 -70 383 47 211 150 621 270 1075 63 238 94 371 90 388 -4 16 -21 33
-49 47 -35 18 -59 22 -147 22 -130 1 -200 -16 -244 -58 -30 -28 -36 -47 -80
-229 l-48 -199 -152 -311 c-241 -492 -514 -1014 -719 -1372 -301 -526 -520
-794 -620 -756 -40 15 -51 66 -44 205 11 220 81 574 238 1200 133 531 179 775
199 1054 26 367 -45 599 -208 679 -48 24 -69 28 -138 28 -73 0 -87 -3 -157
-38 -89 -44 -226 -168 -334 -302 -189 -235 -499 -755 -818 -1372 -71 -138
-131 -248 -133 -244 -6 18 199 690 379 1238 49 149 89 280 89 291 0 63 -162
107 -300 82 -75 -13 -125 -41 -144 -78 -7 -15 -35 -119 -61 -232 l-47 -205
-122 -250 c-206 -423 -492 -963 -674 -1275 -306 -524 -520 -787 -632 -778 -50
4 -70 48 -70 150 0 231 49 446 466 2026 90 343 164 636 164 652 0 65 -106 104
-269 98 -168 -6 -213 -40 -247 -185 -17 -68 -34 -89 -34 -39 0 38 -59 144 -98
176 -61 50 -129 70 -238 70 -152 0 -263 -36 -399 -131 -238 -164 -378 -402
-442 -752 -15 -84 -22 -99 -81 -187 -223 -328 -440 -576 -629 -719 -85 -64
-224 -135 -297 -152 -130 -29 -145 50 -70 383 47 211 150 621 270 1075 63 238
94 371 90 388 -4 16 -21 33 -49 47 -35 18 -59 22 -147 22 -123 1 -195 -15
-240 -52 -31 -26 -35 -41 -141 -462 -126 -500 -151 -615 -179 -833 -45 -352
-13 -540 111 -651 106 -96 244 -97 443 -3 286 136 591 428 842 806 l49 74 16
-99 c28 -167 82 -285 171 -371 63 -60 121 -87 199 -91 180 -11 365 108 506
322 72 109 87 130 79 106 -11 -32 -96 -453 -126 -622 -54 -312 -71 -462 -77
-693 -8 -315 14 -427 102 -530 131 -154 292 -122 505 101 238 250 463 627 951
1597 116 231 212 417 215 415 2 -2 -10 -71 -25 -154 -62 -316 -97 -616 -86
-721 13 -120 70 -185 176 -199 l44 -5 117 233 c304 603 636 1157 921 1538 223
296 408 429 446 319 42 -122 -22 -471 -257 -1389 -70 -274 -116 -518 -149
-785 -25 -202 -25 -627 0 -743 26 -122 54 -190 99 -238 77 -83 160 -96 269
-42 47 23 92 60 170 137 249 251 472 627 1023 1730 98 194 179 352 180 350 2
-2 -7 -56 -20 -119 -13 -63 -33 -186 -44 -273 -45 -352 -13 -540 111 -651 106
-96 244 -97 443 -3 355 169 703 544 1041 1121 l23 40 22 -45 c32 -63 97 -156
144 -208 23 -24 162 -144 311 -265 409 -335 548 -478 627 -641 56 -118 78
-217 85 -375 12 -304 -81 -685 -252 -1035 -128 -261 -258 -438 -491 -665 -283
-277 -594 -480 -849 -556 -75 -22 -111 -27 -210 -28 -105 -1 -126 2 -171 22
-63 29 -96 62 -125 127 -19 41 -23 68 -23 155 -1 112 9 180 25 180 25 0 163
76 204 113 64 55 88 107 83 172 -9 108 -107 170 -213 135 -52 -17 -133 -103
-180 -190 -39 -71 -42 -74 -90 -86 -185 -47 -523 -45 -885 7 -147 21 -439 75
-447 82 -6 7 293 371 370 450 132 134 259 215 417 266 60 20 160 39 305 58 53
7 60 11 63 32 2 13 -2 28 -10 32 -19 12 -246 11 -331 -2 -130 -19 -230 -49
-333 -99 -162 -79 -289 -182 -632 -515 l-163 -158 -197 36 c-628 117 -1102
162 -1486 139 -708 -43 -1233 -217 -1711 -567 -383 -282 -629 -634 -710 -1020
-23 -105 -23 -313 -1 -414 82 -375 401 -655 827 -726 594 -99 1287 120 1907
602 427 332 944 891 1457 1574 97 130 113 146 135 143 14 -2 84 -16 155 -29
472 -92 629 -109 965 -102 146 3 277 9 291 12 l27 7 -5 -134 c-4 -98 -1 -152
11 -206 43 -206 174 -338 404 -412 244 -79 498 -62 848 54 265 89 513 232 737
425 l117 102 0 -58 c1 -426 441 -662 1006 -539 601 131 1101 488 1483 1062
210 316 339 681 373 1061 13 146 1 324 -28 436 -8 33 -13 62 -10 64 9 9 294
-17 416 -38 419 -70 787 -213 1214 -471 174 -106 335 -185 462 -227 390 -130
804 -98 1134 90 157 89 273 187 289 246 26 92 -78 176 -162 131 -12 -6 -47
-34 -79 -63 -150 -139 -355 -233 -578 -266 -103 -15 -326 -6 -430 16 -172 37
-342 108 -570 239 -531 304 -1065 460 -1601 469 l-147 2 -47 95 c-140 283
-311 457 -719 732 -299 202 -432 334 -516 510 -68 143 -86 296 -55 472 45 257
207 458 455 566 82 35 208 40 278 10 57 -25 106 -73 130 -129 26 -60 19 -178
-17 -313 -17 -64 -31 -128 -31 -142 0 -52 117 -107 192 -91 74 17 98 49 122
167 52 253 -36 481 -217 563 -115 53 -289 73 -462 55z m-8912 -334 c72 -30
127 -129 149 -270 11 -70 10 -77 -31 -227 -22 -85 -41 -160 -41 -168 0 -26
-104 -276 -160 -386 -71 -140 -144 -248 -202 -301 -58 -53 -80 -65 -127 -66
-61 -1 -99 26 -129 90 -49 106 -41 357 19 656 91 450 327 754 522 672z m9317
-2371 c0 -120 -41 -361 -91 -535 -126 -433 -335 -781 -660 -1095 -283 -273
-593 -475 -844 -551 -76 -23 -110 -27 -215 -28 -138 -1 -169 7 -232 63 -20 17
-47 53 -59 79 -22 42 -24 60 -24 177 l0 130 71 90 c162 205 315 477 385 686
34 100 35 102 118 181 242 229 669 497 1061 664 153 65 446 173 473 174 13 0
17 -8 17 -35z m-6980 -1469 c267 -30 742 -105 757 -120 3 -3 -14 -29 -39 -58
-25 -29 -51 -64 -58 -77 -35 -67 -542 -658 -790 -920 -726 -770 -1396 -1140
-2061 -1141 -416 0 -727 219 -795 560 -24 120 -15 302 21 425 119 409 474 782
1001 1051 296 150 591 232 1042 289 147 19 723 13 922 -9z"/>
</g>
</svg>